<svg xmlns="http://www.w3.org/2000/svg" viewBox="0 0 512 512">
  <defs>
    <linearGradient id="bg" x1="0%" y1="0%" x2="100%" y2="100%">
      <stop offset="0%" stop-color="#0EA5E9"/>
      <stop offset="50%" stop-color="#14B8A6"/>
      <stop offset="100%" stop-color="#7C3AED"/>
    </linearGradient>
    <linearGradient id="glow" x1="0%" y1="0%" x2="100%" y2="100%">
      <stop offset="0%" stop-color="#0EA5E9" stop-opacity="0.3"/>
      <stop offset="100%" stop-color="#7C3AED" stop-opacity="0.1"/>
    </linearGradient>
  </defs>
  <!-- Rounded square background -->
  <rect width="512" height="512" rx="108" fill="#0f172a"/>
  <!-- Inner glow -->
  <rect x="16" y="16" width="480" height="480" rx="96" fill="url(#glow)"/>
  <!-- G letter with growth arrow -->
  <path d="M256 96C162.4 96 96 170 96 256c0 86 66.4 160 160 160 60 0 108-28 136-72v-88H264v48h80v24c-20 28-52 44-88 44-66 0-112-54-112-116s46-116 112-116c40 0 74 18 96 48l40-32C364 116 314 96 256 96z" fill="url(#bg)"/>
  <!-- Growth arrow (sparkle accent) -->
  <path d="M368 152l48-48M368 104h48v48" stroke="#14B8A6" stroke-width="20" stroke-linecap="round" stroke-linejoin="round" fill="none"/>
  <!-- Sparkle dot -->
  <circle cx="416" cy="96" r="8" fill="#7C3AED"/>
</svg>